<svg width="24" height="24" viewBox="0 0 24 24" fill="none" xmlns="http://www.w3.org/2000/svg">
<g id="check">
<g id="Layer 1">
<path id="Vector" d="M11.964 4.85955C13.3763 4.85955 14.7568 5.27834 15.9311 6.06294C17.1053 6.84755 18.0205 7.96275 18.561 9.2675C19.1014 10.5723 19.2428 12.008 18.9673 13.3931C18.6918 14.7782 18.0117 16.0505 17.0131 17.0491C16.0145 18.0478 14.7422 18.7278 13.3571 19.0033C11.972 19.2789 10.5362 19.1375 9.23148 18.597C7.92673 18.0566 6.81154 17.1413 6.02693 15.9671C5.24232 14.7928 4.82354 13.4123 4.82354 12C4.83085 10.1085 5.5855 8.29656 6.92302 6.95904C8.26054 5.62152 10.0725 4.86687 11.964 4.85955ZM11.964 3.27278C10.2395 3.27983 8.55568 3.79767 7.12519 4.76091C5.6947 5.72416 4.58166 7.08962 3.92659 8.68493C3.27151 10.2802 3.10377 12.0339 3.44453 13.7244C3.7853 15.415 4.61929 16.9667 5.84123 18.1837C7.06317 19.4006 8.61828 20.2283 10.3102 20.5621C12.0022 20.896 13.7551 20.7211 15.3477 20.0595C16.9403 19.3979 18.3012 18.2793 19.2586 16.8449C20.216 15.4105 20.727 13.7246 20.727 12C20.727 10.851 20.5001 9.71318 20.0593 8.652C19.6185 7.59083 18.9724 6.62715 18.1582 5.81628C17.3441 5.00541 16.3777 4.36331 15.3148 3.92683C14.2518 3.49035 13.1131 3.26808 11.964 3.27278Z" fill="#06B6D4"/>
</g>
</g>
</svg>
