<svg width="28" height="28" viewBox="0 0 28 28" fill="none" xmlns="http://www.w3.org/2000/svg">
<g id="check" opacity="0.9">
<g id="Layer 1">
<path id="Vector" d="M13.9773 22.6646C18.752 22.6646 22.6226 18.794 22.6226 14.0193C22.6226 9.24465 18.752 5.37402 13.9773 5.37402C9.20266 5.37402 5.33203 9.24465 5.33203 14.0193C5.33203 18.794 9.20266 22.6646 13.9773 22.6646Z" fill="#6366F1"/>
<path id="Vector_2" d="M13.9585 5.66968C15.6062 5.66968 17.2168 6.15826 18.5867 7.07364C19.9567 7.98901 21.0245 9.29007 21.655 10.8123C22.2855 12.3345 22.4505 14.0095 22.129 15.6255C21.8076 17.2414 21.0142 18.7258 19.8491 19.8909C18.6841 21.0559 17.1997 21.8493 15.5837 22.1708C13.9678 22.4922 12.2928 22.3272 10.7706 21.6967C9.24834 21.0662 7.94728 19.9984 7.03191 18.6285C6.11653 17.2585 5.62795 15.6479 5.62795 14.0003C5.63648 11.7935 6.51691 9.67952 8.07735 8.11908C9.63779 6.55864 11.7517 5.67822 13.9585 5.66968ZM13.9585 3.81844C11.9465 3.82668 9.98211 4.43082 8.31321 5.5546C6.6443 6.67839 5.34576 8.27143 4.58151 10.1326C3.81725 11.9938 3.62155 14.0397 4.01911 16.012C4.41667 17.9844 5.38966 19.7947 6.81526 21.2145C8.24086 22.6343 10.0551 23.5999 12.0291 23.9894C14.003 24.3789 16.0481 24.1748 17.9062 23.403C19.7642 22.6311 21.3519 21.3261 22.4689 19.6526C23.5859 17.9791 24.182 16.0123 24.182 14.0003C24.182 12.6597 23.9173 11.3322 23.403 10.0942C22.8887 8.85617 22.135 7.73188 21.1851 6.78586C20.2352 5.83985 19.1079 5.09073 17.8677 4.5815C16.6276 4.07227 15.2991 3.81296 13.9585 3.81844Z" fill="#6366F1"/>
<path id="Vector_3" d="M18.0025 10.8993L12.9486 15.9532L10.0524 13.057L9.07715 14.0322L12.9486 17.9037L18.9777 11.8745L18.0025 10.8993Z" fill="black"/>
</g>
</g>
</svg>
