<svg width="25" height="24" viewBox="0 0 25 24" fill="none" xmlns="http://www.w3.org/2000/svg">
<g id="Logo">
<path id="Vector" d="M24.2623 12.2763C24.2623 11.4605 24.1962 10.6404 24.0551 9.83789H12.7363V14.4589H19.2181C18.9491 15.9492 18.0849 17.2676 16.8194 18.1054V21.1037H20.6864C22.9572 19.0137 24.2623 15.9272 24.2623 12.2763Z" fill="#4285F4"/>
<path id="Vector_2" d="M12.7352 24.0008C15.9717 24.0008 18.701 22.9382 20.6897 21.1039L16.8227 18.1055C15.7468 18.8375 14.3579 19.252 12.7396 19.252C9.609 19.252 6.95458 17.1399 6.00217 14.3003H2.01172V17.3912C4.04883 21.4434 8.19801 24.0008 12.7352 24.0008V24.0008Z" fill="#34A853"/>
<path id="Vector_3" d="M5.99887 14.3002C5.4962 12.8099 5.4962 11.196 5.99887 9.70569V6.61475H2.01283C0.310827 10.0055 0.310827 14.0004 2.01283 17.3912L5.99887 14.3002V14.3002Z" fill="#FBBC04"/>
<path id="Vector_4" d="M12.7352 4.74966C14.446 4.7232 16.0995 5.36697 17.3386 6.54867L20.7646 3.12262C18.5952 1.0855 15.7159 -0.034466 12.7352 0.000808666C8.19801 0.000808666 4.04883 2.55822 2.01172 6.61481L5.99776 9.70575C6.94576 6.86173 9.60459 4.74966 12.7352 4.74966V4.74966Z" fill="#EA4335"/>
</g>
</svg>
