<svg width="160" height="100" viewBox="0 0 160 100" fill="none" xmlns="http://www.w3.org/2000/svg">
<g id="Group 3465319" filter="url(#filter0_f_367_10092)">
<path id="Vector" fill-rule="evenodd" clip-rule="evenodd" d="M32.5919 1.06718C32.8825 2.15157 32.2515 3.24448 31.1671 3.53504C30.0827 3.8256 28.9898 3.19461 28.6993 2.11022C28.4087 1.02583 29.0397 -0.0670785 30.1241 -0.357641C31.2085 -0.648204 32.3014 -0.0172095 32.5919 1.06718Z" fill="white"/>
<path id="Vector_2" fill-rule="evenodd" clip-rule="evenodd" d="M45.3505 33.1118C45.1568 32.3889 44.4282 31.9682 43.7052 32.1619C42.9823 32.3556 42.5616 33.0842 42.7553 33.8072C42.9491 34.5301 43.6777 34.9508 44.4006 34.7571C45.1235 34.5633 45.5442 33.8347 45.3505 33.1118Z" fill="white"/>
<path id="Vector_3" fill-rule="evenodd" clip-rule="evenodd" d="M37.4032 44.9762C37.7906 46.422 36.9493 47.8792 35.5034 48.2666C34.0576 48.6541 32.6004 47.8127 32.2129 46.3669C31.8255 44.921 32.6668 43.4638 34.1127 43.0764C35.5586 42.689 37.0158 43.5303 37.4032 44.9762Z" fill="white"/>
<path id="Vector_4" fill-rule="evenodd" clip-rule="evenodd" d="M14.0783 4.6371C14.3688 5.72148 13.7378 6.81439 12.6534 7.10496C11.5691 7.39552 10.4761 6.76453 10.1856 5.68014C9.89502 4.59575 10.526 3.50284 11.6104 3.21227C12.6948 2.92171 13.7877 3.55271 14.0783 4.6371Z" fill="white"/>
<path id="Vector_5" fill-rule="evenodd" clip-rule="evenodd" d="M18.4237 20.8568C18.8111 22.3027 17.9698 23.7599 16.5239 24.1473C15.0781 24.5347 13.6209 23.6934 13.2334 22.2475C12.846 20.8017 13.6873 19.3445 15.1332 18.957C16.5791 18.5696 18.0363 19.411 18.4237 20.8568Z" fill="white"/>
<path id="Vector_6" fill-rule="evenodd" clip-rule="evenodd" d="M27.9358 14.8311C28.0326 15.1925 27.8223 15.5568 27.4608 15.6537C27.0994 15.7505 26.735 15.5402 26.6382 15.1787C26.5413 14.8173 26.7517 14.453 27.1131 14.3561C27.4746 14.2593 27.8389 14.4696 27.9358 14.8311Z" fill="white"/>
<path id="Vector_7" fill-rule="evenodd" clip-rule="evenodd" d="M126.847 72.5862C127.003 73.1685 126.664 73.7553 126.082 73.9113C125.499 74.0674 124.913 73.7285 124.757 73.1463C124.601 72.564 124.939 71.9772 125.522 71.8212C126.104 71.6651 126.691 72.004 126.847 72.5862Z" fill="white"/>
<path id="Vector_8" fill-rule="evenodd" clip-rule="evenodd" d="M28.4404 97.6108C28.6742 98.4833 28.1665 99.3627 27.294 99.5965C26.4215 99.8303 25.5421 99.3225 25.3083 98.45C25.0745 97.5775 25.5822 96.6981 26.4547 96.4643C27.3272 96.2306 28.2066 96.7383 28.4404 97.6108Z" fill="white"/>
<path id="Vector_9" fill-rule="evenodd" clip-rule="evenodd" d="M93.9385 20.2594C94.1722 21.1319 93.6645 22.0113 92.792 22.2451C91.9195 22.4788 91.0401 21.9711 90.8063 21.0986C90.5726 20.2261 91.0803 19.3467 91.9528 19.1129C92.8253 18.8791 93.7047 19.3869 93.9385 20.2594Z" fill="white"/>
<path id="Vector_10" fill-rule="evenodd" clip-rule="evenodd" d="M41.0736 7.53139C40.8865 7.85547 40.4802 7.96435 40.1561 7.77724C39.832 7.59013 39.7232 7.18381 39.9103 6.85973C40.0974 6.53565 40.5037 6.42677 40.8278 6.61388C41.1519 6.80099 41.2607 7.20731 41.0736 7.53139Z" fill="white"/>
<path id="Vector_11" fill-rule="evenodd" clip-rule="evenodd" d="M148.01 60.8278C147.709 61.3498 147.054 61.5252 146.532 61.2238C146.01 60.9224 145.835 60.2679 146.136 59.7458C146.438 59.2238 147.092 59.0484 147.614 59.3498C148.136 59.6512 148.312 60.3057 148.01 60.8278Z" fill="white"/>
<path id="Vector_12" fill-rule="evenodd" clip-rule="evenodd" d="M60.1533 79.9905C59.7016 80.7728 58.7208 81.0356 57.9385 80.5839C57.1563 80.1323 56.8935 79.1515 57.3451 78.3692C57.7968 77.5869 58.7776 77.3241 59.5599 77.7758C60.3421 78.2274 60.6049 79.2082 60.1533 79.9905Z" fill="white"/>
<path id="Vector_13" fill-rule="evenodd" clip-rule="evenodd" d="M125.652 2.63901C125.2 3.42128 124.219 3.68409 123.437 3.23244C122.655 2.78079 122.392 1.79998 122.844 1.01771C123.295 0.235428 124.276 -0.0273825 125.058 0.424268C125.841 0.875918 126.103 1.85673 125.652 2.63901Z" fill="white"/>
<path id="Vector_14" fill-rule="evenodd" clip-rule="evenodd" d="M34.007 27.1116C34.1039 27.473 33.8936 27.8374 33.5321 27.9342C33.1706 28.0311 32.8063 27.8207 32.7095 27.4593C32.6126 27.0978 32.823 26.7335 33.1844 26.6366C33.5459 26.5398 33.9102 26.7501 34.007 27.1116Z" fill="white"/>
<path id="Vector_15" fill-rule="evenodd" clip-rule="evenodd" d="M136.627 92.368C136.783 92.9503 136.444 93.5371 135.862 93.6931C135.28 93.8491 134.693 93.5103 134.537 92.9281C134.381 92.3458 134.72 91.759 135.302 91.6029C135.884 91.4469 136.471 91.7857 136.627 92.368Z" fill="white"/>
<path id="Vector_16" fill-rule="evenodd" clip-rule="evenodd" d="M108.595 49.9021C108.829 50.7746 108.321 51.654 107.449 51.8878C106.576 52.1216 105.697 51.6139 105.463 50.7414C105.229 49.8689 105.737 48.9895 106.61 48.7557C107.482 48.5219 108.361 49.0296 108.595 49.9021Z" fill="white"/>
<path id="Vector_17" fill-rule="evenodd" clip-rule="evenodd" d="M36.684 20.5086C36.4969 20.8327 36.0905 20.9416 35.7665 20.7545C35.4424 20.5674 35.3335 20.161 35.5206 19.837C35.7077 19.5129 36.114 19.404 36.4381 19.5911C36.7622 19.7782 36.8711 20.1845 36.684 20.5086Z" fill="white"/>
<path id="Vector_18" fill-rule="evenodd" clip-rule="evenodd" d="M140.939 81.7315C140.638 82.2535 139.983 82.4289 139.461 82.1275C138.939 81.8261 138.764 81.1716 139.065 80.6495C139.366 80.1275 140.021 79.9521 140.543 80.2535C141.065 80.5549 141.24 81.2094 140.939 81.7315Z" fill="white"/>
<path id="Vector_19" fill-rule="evenodd" clip-rule="evenodd" d="M115.056 33.9634C114.604 34.7457 113.624 35.0085 112.841 34.5568C112.059 34.1052 111.796 33.1244 112.248 32.3421C112.7 31.5598 113.68 31.297 114.463 31.7486C115.245 32.2003 115.508 33.1811 115.056 33.9634Z" fill="white"/>
<path id="Vector_20" fill-rule="evenodd" clip-rule="evenodd" d="M42.6496 17.842C42.7465 18.2035 42.5361 18.5678 42.1747 18.6646C41.8132 18.7615 41.4489 18.5512 41.3521 18.1897C41.2552 17.8282 41.4655 17.4639 41.827 17.3671C42.1885 17.2702 42.5528 17.4806 42.6496 17.842Z" fill="white"/>
<path id="Vector_21" fill-rule="evenodd" clip-rule="evenodd" d="M150.549 77.4367C150.705 78.0189 150.366 78.6058 149.784 78.7618C149.202 78.9178 148.615 78.579 148.459 77.9967C148.303 77.4145 148.642 76.8276 149.224 76.6716C149.806 76.5156 150.393 76.8544 150.549 77.4367Z" fill="white"/>
<path id="Vector_22" fill-rule="evenodd" clip-rule="evenodd" d="M129.456 27.5278C129.689 28.4004 129.182 29.2797 128.309 29.5135C127.437 29.7473 126.557 29.2396 126.323 28.3671C126.09 27.4946 126.597 26.6152 127.47 26.3814C128.342 26.1476 129.222 26.6553 129.456 27.5278Z" fill="white"/>
<path id="Vector_23" fill-rule="evenodd" clip-rule="evenodd" d="M49.3485 20.065C49.1614 20.389 48.7551 20.4979 48.431 20.3108C48.1069 20.1237 47.9981 19.7174 48.1852 19.3933C48.3723 19.0692 48.7786 18.9603 49.1027 19.1474C49.4268 19.3346 49.5356 19.7409 49.3485 20.065Z" fill="white"/>
<path id="Vector_24" fill-rule="evenodd" clip-rule="evenodd" d="M161.341 81.0167C161.039 81.5388 160.385 81.7141 159.863 81.4127C159.341 81.1113 159.165 80.4568 159.467 79.9348C159.768 79.4127 160.423 79.2373 160.945 79.5387C161.467 79.8402 161.642 80.4947 161.341 81.0167Z" fill="white"/>
<path id="Vector_25" fill-rule="evenodd" clip-rule="evenodd" d="M145.627 32.893C145.175 33.6753 144.194 33.9381 143.412 33.4864C142.63 33.0348 142.367 32.0539 142.819 31.2717C143.27 30.4894 144.251 30.2266 145.033 30.6782C145.816 31.1299 146.079 32.1107 145.627 32.893Z" fill="white"/>
</g>
<defs>
<filter id="filter0_f_367_10092" x="4.74141" y="-29.9855" width="162.12" height="164.655" filterUnits="userSpaceOnUse" color-interpolation-filters="sRGB">
<feFlood flood-opacity="0" result="BackgroundImageFix"/>
<feBlend mode="normal" in="SourceGraphic" in2="BackgroundImageFix" result="shape"/>
<feGaussianBlur stdDeviation="2.68667" result="effect1_foregroundBlur_367_10092"/>
</filter>
</defs>
</svg>
