<svg width="76" height="20" viewBox="0 0 76 20" fill="none" xmlns="http://www.w3.org/2000/svg">
<path d="M7.496 9.99022L0.651556 0.233779H6.47556L9.96 5.36089L13.4196 0.233779H19.2436L12.3742 9.99022V19H7.496V9.99022ZM21.924 12.5538C21.924 12.9852 21.9986 13.3834 22.148 13.7484C22.3139 14.0969 22.5213 14.4039 22.7702 14.6693C23.0357 14.9348 23.3426 15.1422 23.6911 15.2916C24.0561 15.4409 24.4377 15.5156 24.836 15.5156C25.2342 15.5156 25.6075 15.4409 25.956 15.2916C26.321 15.1422 26.628 14.9348 26.8769 14.6693C27.1423 14.4039 27.3497 14.0969 27.4991 13.7484C27.665 13.3834 27.748 12.9935 27.748 12.5787C27.748 12.1804 27.665 11.8071 27.4991 11.4587C27.3497 11.0936 27.1423 10.7784 26.8769 10.5129C26.628 10.2474 26.321 10.04 25.956 9.89067C25.6075 9.74133 25.2342 9.66667 24.836 9.66667C24.4377 9.66667 24.0561 9.74133 23.6911 9.89067C23.3426 10.04 23.0357 10.2474 22.7702 10.5129C22.5213 10.7784 22.3139 11.0853 22.148 11.4338C21.9986 11.7822 21.924 12.1556 21.924 12.5538ZM17.1702 12.504C17.1702 11.5582 17.361 10.6788 17.7426 9.86578C18.1243 9.03615 18.6552 8.32267 19.3355 7.72533C20.0158 7.11141 20.8206 6.63022 21.7497 6.28178C22.6955 5.93333 23.7243 5.75911 24.836 5.75911C25.9311 5.75911 26.9432 5.93333 27.8724 6.28178C28.8182 6.61363 29.6312 7.08652 30.3115 7.70044C31.0084 8.29778 31.5477 9.01956 31.9293 9.86578C32.3109 10.6954 32.5017 11.6163 32.5017 12.6284C32.5017 13.6406 32.3026 14.5698 31.9044 15.416C31.5228 16.2456 30.9918 16.9674 30.3115 17.5813C29.6312 18.1787 28.8099 18.6433 27.8475 18.9751C26.9017 19.307 25.873 19.4729 24.7613 19.4729C23.6662 19.4729 22.654 19.307 21.7249 18.9751C20.7957 18.6433 19.9909 18.1704 19.3106 17.5564C18.6469 16.9425 18.1243 16.2124 17.7426 15.3662C17.361 14.5034 17.1702 13.5493 17.1702 12.504Z" fill="#6366F1"/>
<path d="M39.6497 14.8684H40.7697C41.6159 14.8684 42.3709 14.7357 43.0346 14.4702C43.6983 14.2047 44.2542 13.8397 44.7022 13.3751C45.1668 12.9105 45.5152 12.363 45.7475 11.7324C45.9964 11.0853 46.1208 10.3801 46.1208 9.61689C46.1208 8.87022 45.9964 8.17333 45.7475 7.52622C45.4986 6.87911 45.1419 6.32326 44.6773 5.85867C44.2293 5.39407 43.6734 5.02904 43.0097 4.76356C42.346 4.49807 41.5993 4.36533 40.7697 4.36533H39.6497V14.8684ZM34.7715 0.233779H41.9893C43.2669 0.233779 44.4616 0.490964 45.5733 1.00533C46.7016 1.5197 47.6805 2.2083 48.5102 3.07111C49.3564 3.91733 50.0201 4.91289 50.5013 6.05778C50.9825 7.18607 51.2231 8.37244 51.2231 9.61689C51.2231 10.8447 50.9825 12.0311 50.5013 13.176C50.0367 14.3043 49.3813 15.2999 48.5351 16.1627C47.7054 17.0255 46.7265 17.7141 45.5982 18.2284C44.4865 18.7428 43.2835 19 41.9893 19H34.7715V0.233779ZM57.4237 12.5538C57.4237 12.9852 57.4984 13.3834 57.6477 13.7484C57.8136 14.0969 58.021 14.4039 58.2699 14.6693C58.5354 14.9348 58.8424 15.1422 59.1908 15.2916C59.5558 15.4409 59.9375 15.5156 60.3357 15.5156C60.7339 15.5156 61.1072 15.4409 61.4557 15.2916C61.8207 15.1422 62.1277 14.9348 62.3766 14.6693C62.6421 14.4039 62.8495 14.0969 62.9988 13.7484C63.1647 13.3834 63.2477 12.9935 63.2477 12.5787C63.2477 12.1804 63.1647 11.8071 62.9988 11.4587C62.8495 11.0936 62.6421 10.7784 62.3766 10.5129C62.1277 10.2474 61.8207 10.04 61.4557 9.89067C61.1072 9.74133 60.7339 9.66667 60.3357 9.66667C59.9375 9.66667 59.5558 9.74133 59.1908 9.89067C58.8424 10.04 58.5354 10.2474 58.2699 10.5129C58.021 10.7784 57.8136 11.0853 57.6477 11.4338C57.4984 11.7822 57.4237 12.1556 57.4237 12.5538ZM52.6699 12.504C52.6699 11.5582 52.8607 10.6788 53.2424 9.86578C53.624 9.03615 54.155 8.32267 54.8352 7.72533C55.5155 7.11141 56.3203 6.63022 57.2495 6.28178C58.1952 5.93333 59.224 5.75911 60.3357 5.75911C61.4308 5.75911 62.443 5.93333 63.3721 6.28178C64.3179 6.61363 65.131 7.08652 65.8112 7.70044C66.5081 8.29778 67.0474 9.01956 67.429 9.86578C67.8107 10.6954 68.0015 11.6163 68.0015 12.6284C68.0015 13.6406 67.8024 14.5698 67.4041 15.416C67.0225 16.2456 66.4915 16.9674 65.8112 17.5813C65.131 18.1787 64.3096 18.6433 63.3472 18.9751C62.4015 19.307 61.3727 19.4729 60.261 19.4729C59.1659 19.4729 58.1538 19.307 57.2246 18.9751C56.2954 18.6433 55.4907 18.1704 54.8104 17.5564C54.1467 16.9425 53.624 16.2124 53.2424 15.3662C52.8607 14.5034 52.6699 13.5493 52.6699 12.504ZM70.7441 12.6284V0.233779H75.4232V12.6284H70.7441ZM70.1717 16.6107C70.1717 16.2124 70.2463 15.8391 70.3957 15.4907C70.545 15.1256 70.7524 14.8104 71.0179 14.5449C71.2834 14.2794 71.5903 14.072 71.9388 13.9227C72.3038 13.7733 72.6854 13.6987 73.0837 13.6987C73.4819 13.6987 73.8552 13.7733 74.2037 13.9227C74.5687 14.072 74.884 14.2794 75.1494 14.5449C75.4149 14.8104 75.6223 15.1256 75.7717 15.4907C75.921 15.8391 75.9957 16.2124 75.9957 16.6107C75.9957 17.0089 75.921 17.3905 75.7717 17.7556C75.6223 18.104 75.4149 18.411 75.1494 18.6764C74.884 18.9419 74.5687 19.1493 74.2037 19.2987C73.8552 19.448 73.4819 19.5227 73.0837 19.5227C72.6854 19.5227 72.3038 19.448 71.9388 19.2987C71.5903 19.1493 71.2834 18.9419 71.0179 18.6764C70.7524 18.411 70.545 18.104 70.3957 17.7556C70.2463 17.3905 70.1717 17.0089 70.1717 16.6107Z" fill="#06B6D4"/>
</svg>
