<svg width="120" height="120" viewBox="0 0 120 120" fill="none" xmlns="http://www.w3.org/2000/svg">
<path d="M33.056 62.248L6.656 24.616H29.12L42.56 44.392L55.904 24.616H78.368L51.872 62.248V97H33.056V62.248Z" fill="#6366F1"/>
<path d="M83.903 72.424V24.616H101.951V72.424H83.903ZM81.695 87.784C81.695 86.248 81.983 84.808 82.559 83.464C83.135 82.056 83.935 80.84 84.959 79.816C85.983 78.792 87.167 77.992 88.511 77.416C89.919 76.84 91.391 76.552 92.927 76.552C94.463 76.552 95.903 76.84 97.247 77.416C98.655 77.992 99.871 78.792 100.895 79.816C101.919 80.84 102.719 82.056 103.295 83.464C103.871 84.808 104.159 86.248 104.159 87.784C104.159 89.32 103.871 90.792 103.295 92.2C102.719 93.544 101.919 94.728 100.895 95.752C99.871 96.776 98.655 97.576 97.247 98.152C95.903 98.728 94.463 99.016 92.927 99.016C91.391 99.016 89.919 98.728 88.511 98.152C87.167 97.576 85.983 96.776 84.959 95.752C83.935 94.728 83.135 93.544 82.559 92.2C81.983 90.792 81.695 89.32 81.695 87.784Z" fill="#06B6D4"/>
</svg>
